<svg xmlns="http://www.w3.org/2000/svg" xmlns:xlink="http://www.w3.org/1999/xlink" xml:lang="en" height="567.2pt" width="275.8295pt" viewBox="-137.91475000000005 -4.6 275.8295 567.2"><polygon points="84.11850000000001,45.0 84.47548418628318,44.99716787266218 84.83237850370652,44.98867220362166 85.1890931060342,44.97451513161767 85.5455381922727,44.9547002206174 85.90162402927774,44.929232458918705 86.25726097434412,44.8981182578944 86.61235949777276,44.861365450378216 86.96683020540937,44.81898328869289 87.32058386114893,44.77098244232098 87.67353140940038,44.71737499521886 88.02558399750593,44.65817444277467 88.37665299810924,44.593395688410894 88.72665003146679,44.523055039832514 89.07548698769718,44.44717020492165 89.42307604896212,44.365760287279684 89.76932971157429,44.278845781418006 90.11416080802579,44.18644856759869 90.45748252893218,44.08859190632618 90.79920844488619,43.985300432491655 91.13925252821596,43.87660014917127 91.477529174642,43.76251842108004 91.81395322482754,43.643083967682934 92.14843998581713,43.5183268559649 92.48090525235736,43.38827849286163 92.8112653280954,43.25297161735308 93.13943704664881,43.112440292221564 93.46533779254244,42.966719895476665 93.78888552200637,42.815847111448974 94.10999878362992,42.659859921555054 94.42859673886674,42.49879759473578 94.74459918238537,42.33270067757059 95.05792656226055,42.16161098407016 95.36850000000001,41.985571585149856 95.67624131040165,41.80462679778697 95.98107302123631,41.61882217386406 96.28291839275096,41.428204488701574 96.5817014369875,41.23282172928235 96.87734693691235,41.03272308217123 97.16978046535198,40.82795892113255 97.45892840372942,40.61858079444881 97.74471796059751,40.40464141194372 98.02707718996362,40.18619463171271 98.30593500940176,39.96329544656452 98.58122121794715,39.735999970177 98.85286651376892,39.50436542297081 99.12080251161657,39.268450117704475 99.3849617600355,39.02831344479449 99.64527775834753,38.784015857364075 99.90168497339224,38.535618856024406 100.15411885602443,38.28318497339222 100.40251585736408,38.026777758347514 100.6468134447945,37.76646176003547 100.88695011770449,37.502302511616556 101.12286542297082,37.23436651376891 101.35449997017702,36.96272121794713 101.58179544656453,36.687435009401746 101.80469463171272,36.40857718996361 102.02314141194374,36.126217960597494 102.23708079444881,35.840428403729405 102.44645892113255,35.55128046535196 102.65122308217124,35.258846936912335 102.85132172928238,34.963201436987475 103.04670448870158,34.66441839275094 103.23732217386409,34.3625730212363 103.42312679778698,34.05774131040164 103.60407158514988,33.74999999999999 103.78011098407018,33.439426562260536 103.95120067757061,33.12609918238536 104.11729759473577,32.81009673886673 104.27835992155507,32.491498783629915 104.43434711144899,32.170385522006356 104.58521989547667,31.84683779254244 104.73094029222158,31.520937046648804 104.87147161735308,31.192765328095387 105.00677849286166,30.862405252357366 105.1368268559649,30.529939985817112 105.26158396768294,30.195453224827546 105.38101842108006,29.85902917464198 105.49510014917128,29.520752528215954 105.60380043249165,29.18070844488618 105.7070919063262,28.83898252893216 105.80494856759871,28.495660808025782 105.89734578141801,28.15082971157428 105.9842602872797,27.804576048962105 106.06567020492167,27.456986987697157 106.14155503983253,27.10815003146678 106.2118956884109,26.758152998109225 106.27667444277468,26.40708399750593 106.33587499521889,26.055031409400364 106.38948244232098,25.70208386114891 106.4374832886929,25.348330205409354 106.47986545037823,24.993859497772743 106.51661825789441,24.638760974344105 106.54773245891872,24.283124029277733 106.5732002206174,23.927038192272697 106.59301513161769,23.570593106034192 106.60717220362167,23.213878503706514 106.61566787266219,22.85698418628317 106.61850000000001,22.499999999999996 106.61850000000001,22.500000000000004 106.61566787266219,22.14301581371683 106.60717220362167,21.786121496293482 106.59301513161769,21.429406893965805 106.5732002206174,21.072961807727303 106.54773245891872,20.716875970722263 106.51661825789441,20.36123902565589 106.47986545037823,20.006140502227257 106.4374832886929,19.651669794590646 106.38948244232098,19.29791613885109 106.33587499521889,18.944968590599633 106.27667444277468,18.59291600249407 106.2118956884109,18.241847001890772 106.14155503983253,17.891849968533215 106.06567020492167,17.54301301230284 105.9842602872797,17.195423951037892 105.89734578141801,16.84917028842572 105.80494856759871,16.504339191974218 105.70709190632618,16.161017471067836 105.60380043249165,15.81929155511382 105.49510014917128,15.479247471784044 105.38101842108006,15.140970825358018 105.26158396768295,14.804546775172458 105.1368268559649,14.470060014182888 105.00677849286166,14.137594747642634 104.87147161735308,13.80723467190461 104.73094029222158,13.479062953351194 104.58521989547667,13.153162207457559 104.43434711144899,12.829614477993642 104.27835992155507,12.508501216370085 104.11729759473577,12.18990326113327 103.95120067757061,11.873900817614643 103.78011098407018,11.560573437739457 103.60407158514988,11.250000000000004 103.42312679778698,10.942258689598363 103.23732217386409,10.637426978763699 103.04670448870158,10.335581607249058 102.85132172928238,10.036798563012523 102.65122308217124,9.741153063087662 102.44645892113255,9.448719534648045 102.23708079444881,9.159571596270593 102.02314141194374,8.873782039402503 101.80469463171272,8.591422810036388 101.58179544656453,8.312564990598247 101.35449997017702,8.037278782052871 101.12286542297082,7.7656334862310885 100.88695011770449,7.4976974883834435 100.6468134447945,7.233538239964529 100.40251585736408,6.973222241652483 100.15411885602443,6.716815026607776 99.90168497339224,6.464381143975587 99.64527775834753,6.215984142635925 99.38496176003548,5.971686555205503 99.12080251161657,5.731549882295525 98.85286651376892,5.495634577029193 98.58122121794715,5.264000029822999 98.30593500940176,5.0367045534354755 98.02707718996362,4.813805368287288 97.74471796059751,4.595358588056281 97.45892840372942,4.381419205551188 97.16978046535198,4.17204107886745 96.87734693691235,3.967276917828769 96.58170143698749,3.76717827071765 96.28291839275096,3.571795511298428 95.98107302123631,3.3811778261359318 95.67624131040165,3.195373202213021 95.36850000000001,3.0144284148501326 95.05792656226055,2.8383890159298444 94.74459918238537,2.6672993224294084 94.42859673886674,2.5012024052642268 94.10999878362992,2.3401400784449455 93.78888552200637,2.1841528885510266 93.46533779254244,2.033280104523341 93.13943704664881,1.8875597077784367 92.8112653280954,1.7470283826469228 92.48090525235736,1.6117215071383693 92.14843998581713,1.4816731440351028 91.81395322482754,1.3569160323170664 91.477529174642,1.2374815789199642 91.13925252821596,1.1233998508287302 90.79920844488619,1.0146995675083423 90.45748252893218,0.9114080936738147 90.11416080802579,0.8135514324013076 89.76932971157429,0.7211542185819879 89.42307604896212,0.6342397127203183 89.07548698769718,0.552829795078345 88.72665003146679,0.4769449601674838 88.37665299810924,0.4066043115891036 88.02558399750593,0.34182555722532504 87.67353140940038,0.2826250047811305 87.32058386114893,0.2290175576790201 86.96683020540937,0.18101671130710884 86.61235949777276,0.13863454962178823 86.25726097434412,0.10188174210559975 85.90162402927774,0.07076754108129935 85.5455381922727,0.045299779382604655 85.1890931060342,0.025484868382324333 84.83237850370652,0.011327796378341137 84.47548418628318,0.002832127337816459 84.11850000000001,3.9968028886505635e-15 -84.11850000000001,3.9968028886505635e-15 -84.47548418628318,0.002832127337816459 -84.83237850370652,0.011327796378341137 -85.1890931060342,0.025484868382324333 -85.5455381922727,0.045299779382604655 -85.90162402927774,0.07076754108129935 -86.25726097434412,0.10188174210559975 -86.61235949777276,0.13863454962178823 -86.96683020540937,0.18101671130710884 -87.32058386114892,0.2290175576790161 -87.67353140940038,0.2826250047811345 -88.02558399750593,0.34182555722532504 -88.37665299810922,0.4066043115891036 -88.72665003146679,0.4769449601674838 -89.07548698769718,0.552829795078345 -89.42307604896212,0.6342397127203183 -89.76932971157429,0.7211542185819879 -90.11416080802579,0.8135514324013076 -90.45748252893218,0.9114080936738147 -90.79920844488619,1.0146995675083423 -91.13925252821596,1.1233998508287302 -91.477529174642,1.2374815789199642 -91.81395322482754,1.3569160323170624 -92.14843998581713,1.4816731440351028 -92.48090525235736,1.6117215071383693 -92.8112653280954,1.7470283826469228 -93.13943704664881,1.8875597077784367 -93.46533779254244,2.033280104523341 -93.78888552200637,2.1841528885510266 -94.10999878362992,2.3401400784449455 -94.42859673886674,2.5012024052642268 -94.74459918238537,2.6672993224294084 -95.05792656226055,2.8383890159298404 -95.36850000000001,3.0144284148501366 -95.67624131040165,3.195373202213017 -95.98107302123631,3.3811778261359318 -96.28291839275096,3.571795511298428 -96.58170143698749,3.767178270717646 -96.87734693691235,3.967276917828765 -97.16978046535196,4.17204107886745 -97.45892840372942,4.381419205551184 -97.74471796059748,4.5953585880562775 -98.02707718996362,4.813805368287288 -98.30593500940176,5.0367045534354755 -98.58122121794713,5.264000029822999 -98.85286651376892,5.4956345770291914 -99.12080251161657,5.73154988229552 -99.38496176003548,5.971686555205501 -99.64527775834753,6.2159841426359215 -99.90168497339224,6.46438114397559 -100.15411885602443,6.716815026607779 -100.40251585736408,6.973222241652485 -100.6468134447945,7.233538239964529 -100.88695011770449,7.4976974883834435 -101.12286542297082,7.765633486231087 -101.35449997017702,8.037278782052866 -101.58179544656453,8.312564990598249 -101.80469463171272,8.59142281003638 -102.02314141194374,8.873782039402505 -102.23708079444881,9.159571596270593 -102.44645892113255,9.448719534648045 -102.65122308217124,9.741153063087658 -102.85132172928238,10.036798563012521 -103.04670448870158,10.335581607249054 -103.23732217386409,10.637426978763692 -103.42312679778698,10.942258689598363 -103.60407158514988,11.250000000000005 -103.78011098407018,11.560573437739457 -103.95120067757061,11.873900817614643 -104.11729759473577,12.189903261133267 -104.27835992155507,12.508501216370092 -104.43434711144897,12.829614477993639 -104.58521989547667,13.153162207457562 -104.73094029222158,13.479062953351189 -104.87147161735308,13.80723467190461 -105.00677849286166,14.137594747642634 -105.1368268559649,14.470060014182884 -105.26158396768294,14.804546775172454 -105.38101842108006,15.140970825358012 -105.49510014917128,15.47924747178405 -105.60380043249165,15.819291555113812 -105.70709190632618,16.161017471067836 -105.80494856759871,16.504339191974218 -105.89734578141801,16.84917028842572 -105.9842602872797,17.19542395103789 -106.06567020492167,17.543013012302836 -106.14155503983253,17.89184996853322 -106.21189568841089,18.24184700189077 -106.27667444277468,18.59291600249407 -106.33587499521889,18.944968590599633 -106.38948244232098,19.29791613885109 -106.4374832886929,19.651669794590642 -106.47986545037823,20.006140502227254 -106.51661825789441,20.361239025655898 -106.54773245891872,20.716875970722256 -106.5732002206174,21.072961807727303 -106.59301513161769,21.429406893965805 -106.60717220362167,21.786121496293482 -106.61566787266219,22.143015813716822 -106.61850000000001,22.5 -106.61850000000001,22.5 -106.61566787266219,22.856984186283178 -106.60717220362167,23.213878503706518 -106.59301513161769,23.570593106034195 -106.5732002206174,23.927038192272708 -106.54773245891872,24.283124029277747 -106.51661825789441,24.638760974344112 -106.47986545037823,24.99385949777275 -106.4374832886929,25.34833020540936 -106.38948244232098,25.702083861148914 -106.33587499521889,26.05503140940037 -106.27667444277469,26.407083997505932 -106.2118956884109,26.758152998109235 -106.14155503983253,27.108150031466796 -106.06567020492167,27.45698698769717 -105.9842602872797,27.804576048962115 -105.89734578141801,28.150829711574282 -105.80494856759871,28.49566080802579 -105.7070919063262,28.83898252893217 -105.60380043249165,29.180708444886193 -105.49510014917126,29.520752528215965 -105.38101842108006,29.85902917464199 -105.26158396768295,30.19545322482755 -105.1368268559649,30.529939985817116 -105.00677849286166,30.86240525235737 -104.87147161735308,31.19276532809539 -104.73094029222158,31.520937046648815 -104.58521989547667,31.84683779254245 -104.43434711144899,32.17038552200637 -104.27835992155507,32.49149878362992 -104.11729759473577,32.81009673886674 -103.95120067757061,33.12609918238536 -103.78011098407018,33.43942656226055 -103.60407158514988,33.75000000000001 -103.42312679778699,34.05774131040164 -103.23732217386409,34.36257302123631 -103.04670448870158,34.664418392750946 -102.85132172928238,34.96320143698748 -102.65122308217124,35.25884693691235 -102.44645892113255,35.55128046535196 -102.23708079444881,35.84042840372941 -102.02314141194374,36.1262179605975 -101.80469463171272,36.40857718996362 -101.58179544656453,36.68743500940175 -101.35449997017702,36.962721217947134 -101.12286542297082,37.23436651376891 -100.88695011770449,37.50230251161656 -100.6468134447945,37.766461760035476 -100.4025158573641,38.02677775834752 -100.15411885602443,38.28318497339224 -99.90168497339224,38.53561885602442 -99.64527775834753,38.78401585736408 -99.3849617600355,39.0283134447945 -99.12080251161657,39.26845011770448 -98.85286651376892,39.50436542297081 -98.58122121794715,39.735999970177005 -98.30593500940176,39.96329544656453 -98.02707718996362,40.18619463171272 -97.74471796059751,40.40464141194373 -97.45892840372942,40.61858079444881 -97.16978046535198,40.827958921132556 -96.87734693691237,41.03272308217123 -96.5817014369875,41.23282172928236 -96.28291839275094,41.428204488701574 -95.98107302123631,41.618822173864075 -95.67624131040165,41.804626797786995 -95.36849999999998,41.98557158514988 -95.05792656226055,42.161610984070165 -94.74459918238537,42.33270067757059 -94.42859673886674,42.498797594735784 -94.10999878362992,42.65985992155506 -93.78888552200638,42.81584711144898 -93.46533779254244,42.966719895476665 -93.13943704664882,43.112440292221564 -92.8112653280954,43.25297161735308 -92.48090525235739,43.38827849286164 -92.14843998581713,43.51832685596491 -91.81395322482754,43.64308396768295 -91.477529174642,43.762518421080046 -91.13925252821596,43.87660014917128 -90.7992084448862,43.98530043249167 -90.45748252893218,44.0885919063262 -90.1141608080258,44.186448567598696 -89.76932971157429,44.27884578141803 -89.42307604896212,44.36576028727969 -89.07548698769718,44.44717020492166 -88.72665003146679,44.52305503983253 -88.37665299810924,44.59339568841091 -88.02558399750593,44.65817444277469 -87.6735314094004,44.717374995218876 -87.32058386114893,44.770982442320985 -86.96683020540937,44.8189832886929 -86.61235949777276,44.861365450378216 -86.2572609743441,44.89811825789441 -85.90162402927776,44.929232458918705 -85.5455381922727,44.954700220617404 -85.18909310603422,44.974515131617686 -84.83237850370652,44.98867220362166 -84.47548418628318,44.99716787266219 -84.11850000000001,45.0 84.11850000000001,45.0 " style="stroke:black;fill:none;stroke-width:2.0;stroke-dasharray:-;stroke-linecap:round;stroke-linejoin:round;" /><polygon points="110.81474999999993,558.0 111.1717341862831,557.9971678726622 111.52862850370644,557.9886722036216 111.88534310603413,557.9745151316176 112.24178819227264,557.9547002206174 112.59787402927768,557.9292324589187 112.95351097434403,557.8981182578945 113.3086094977727,557.8613654503782 113.66308020540929,557.8189832886928 114.01683386114884,557.7709824423209 114.3697814094003,557.7173749952188 114.72183399750585,557.6581744427747 115.07290299810917,557.5933956884109 115.42290003146672,557.5230550398325 115.77173698769708,557.4471702049217 116.11932604896204,557.3657602872797 116.46557971157421,557.278845781418 116.81041080802571,557.1864485675987 117.1537325289321,557.0885919063262 117.49545844488611,556.9853004324916 117.8355025282159,556.8766001491713 118.17377917464192,556.76251842108 118.51020322482748,556.643083967683 118.84468998581704,556.5183268559649 119.1771552523573,556.3882784928617 119.50751532809532,556.2529716173531 119.83568704664873,556.1124402922215 120.16158779254238,555.9667198954767 120.48513552200629,555.815847111449 120.80624878362985,555.659859921555 121.12484673886665,555.4987975947358 121.44084918238528,555.3327006775706 121.75417656226045,555.1616109840702 122.06474999999992,554.9855715851498 122.37249131040157,554.8046267977869 122.67732302123623,554.6188221738641 122.97916839275086,554.4282044887016 123.27795143698741,554.2328217292824 123.57359693691225,554.0327230821713 123.86603046535188,553.8279589211326 124.15517840372934,553.6185807944488 124.44096796059742,553.4046414119438 124.72332718996353,553.1861946317127 125.00218500940167,552.9632954465645 125.27747121794705,552.735999970177 125.54911651376884,552.5043654229707 125.8170525116165,552.2684501177046 126.0812117600354,552.0283134447944 126.34152775834744,551.7840158573641 126.59793497339214,551.5356188560244 126.85036885602433,551.2831849733922 127.098765857364,551.0267777583475 127.34306344479441,550.7664617600354 127.58320011770441,550.5023025116166 127.81911542297074,550.2343665137689 128.05074997017692,549.9627212179471 128.27804544656445,549.6874350094017 128.50094463171263,549.4085771899636 128.71939141194363,549.1262179605975 128.93333079444875,548.8404284037294 129.14270892113248,548.551280465352 129.34747308217115,548.2588469369123 129.54757172928228,547.9632014369874 129.74295448870149,547.6644183927509 129.933572173864,547.3625730212364 130.1193767977869,547.0577413104016 130.3003215851498,546.75 130.47636098407008,546.4394265622606 130.6474506775705,546.1260991823854 130.8135475947357,545.8100967388667 130.974609921555,545.4914987836299 131.1305971114489,545.1703855220063 131.2814698954766,544.8468377925424 131.4271902922215,544.5209370466488 131.567721617353,544.1927653280954 131.70302849286153,543.8624052523573 131.8330768559648,543.5299399858171 131.95783396768286,543.1954532248276 132.07726842107996,542.8590291746419 132.1913501491712,542.5207525282159 132.3000504324916,542.1807084448862 132.40334190632612,541.8389825289322 132.5011985675986,541.4956608080258 132.59359578141795,541.1508297115743 132.68051028727962,540.8045760489621 132.76192020492158,540.4569869876972 132.83780503983243,540.1081500314668 132.90814568841083,539.7581529981092 132.9729244427746,539.407083997506 133.0321249952188,539.0550314094004 133.0857324423209,538.7020838611489 133.1337332886928,538.3483302054094 133.17611545037812,537.9938594977727 133.2128682578943,537.6387609743441 133.24398245891862,537.2831240292777 133.2694502206173,536.9270381922727 133.28926513161758,536.5705931060342 133.30342220362158,536.2138785037065 133.3119178726621,535.8569841862832 133.31474999999992,535.5 133.31474999999992,535.5 133.31191787266212,535.1430158137168 133.3034222036216,534.7861214962935 133.2892651316176,534.4294068939658 133.26945022061733,534.0729618077273 133.24398245891862,533.7168759707223 133.21286825789434,533.3612390256559 133.17611545037815,533.0061405022273 133.1337332886928,532.6516697945906 133.0857324423209,532.2979161388511 133.0321249952188,531.9449685905996 132.9729244427746,531.592916002494 132.90814568841083,531.2418470018908 132.83780503983246,530.8918499685332 132.7619202049216,530.5430130123028 132.68051028727962,530.1954239510379 132.59359578141795,529.8491702884257 132.50119856759864,529.5043391919742 132.40334190632612,529.1610174710678 132.3000504324916,528.8192915551138 132.1913501491712,528.4792474717841 132.07726842107996,528.1409708253581 131.9578339676829,527.8045467751724 131.83307685596483,527.4700600141829 131.70302849286156,527.1375947476427 131.56772161735302,526.8072346719046 131.4271902922215,526.4790629533512 131.2814698954766,526.1531622074575 131.1305971114489,525.8296144779936 130.974609921555,525.5085012163701 130.8135475947357,525.1899032611333 130.64745067757053,524.8739008176146 130.47636098407008,524.5605734377394 130.30032158514982,524.25 130.1193767977869,523.9422586895984 129.933572173864,523.6374269787636 129.7429544887015,523.3355816072491 129.54757172928228,523.0367985630126 129.34747308217118,522.7411530630877 129.14270892113248,522.448719534648 128.93333079444875,522.1595715962706 128.71939141194366,521.8737820394025 128.50094463171266,521.5914228100364 128.27804544656445,521.3125649905983 128.05074997017692,521.0372787820529 127.81911542297074,520.7656334862311 127.58320011770442,520.4976974883834 127.34306344479444,520.2335382399646 127.098765857364,519.9732222416525 126.85036885602435,519.7168150266078 126.59793497339216,519.4643811439756 126.34152775834745,519.2159841426359 126.0812117600354,518.9716865552056 125.8170525116165,518.7315498822954 125.54911651376884,518.4956345770293 125.27747121794707,518.264000029823 125.00218500940169,518.0367045534355 124.72332718996356,517.8138053682873 124.44096796059743,517.5953585880562 124.15517840372934,517.3814192055512 123.8660304653519,517.1720410788674 123.57359693691228,516.9672769178287 123.27795143698741,516.7671782707176 122.97916839275088,516.5717955112984 122.67732302123625,516.3811778261359 122.37249131040157,516.1953732022131 122.06474999999993,516.0144284148502 121.75417656226048,515.8383890159298 121.44084918238529,515.6672993224294 121.12484673886667,515.5012024052642 120.80624878362985,515.340140078445 120.48513552200629,515.184152888551 120.16158779254238,515.0332801045233 119.83568704664873,514.8875597077785 119.50751532809532,514.7470283826469 119.1771552523573,514.6117215071383 118.84468998581706,514.4816731440351 118.51020322482748,514.356916032317 118.17377917464192,514.23748157892 117.8355025282159,514.1233998508287 117.49545844488611,514.0146995675084 117.1537325289321,513.9114080936738 116.81041080802571,513.8135514324013 116.46557971157421,513.721154218582 116.11932604896204,513.6342397127203 115.7717369876971,513.5528297950783 115.42290003146672,513.4769449601675 115.07290299810917,513.4066043115891 114.72183399750585,513.3418255572253 114.3697814094003,513.2826250047812 114.01683386114885,513.2290175576791 113.66308020540929,513.1810167113072 113.3086094977727,513.1386345496218 112.95351097434404,513.1018817421055 112.59787402927768,513.0707675410813 112.24178819227264,513.0452997793826 111.88534310603413,513.0254848683824 111.52862850370644,513.0113277963784 111.1717341862831,513.0028321273378 110.81474999999993,513.0 -110.81475000000006,513.0 -111.17173418628323,513.0028321273378 -111.52862850370659,513.0113277963784 -111.88534310603426,513.0254848683824 -112.24178819227276,513.0452997793826 -112.59787402927779,513.0707675410813 -112.95351097434416,513.1018817421055 -113.30860949777279,513.1386345496218 -113.66308020540941,513.1810167113072 -114.01683386114897,513.2290175576791 -114.36978140940043,513.2826250047812 -114.72183399750598,513.3418255572253 -115.07290299810927,513.4066043115891 -115.42290003146685,513.4769449601675 -115.77173698769721,513.5528297950783 -116.11932604896217,513.6342397127203 -116.46557971157434,513.721154218582 -116.81041080802584,513.8135514324013 -117.15373252893222,513.9114080936738 -117.49545844488624,514.0146995675084 -117.83550252821601,514.1233998508287 -118.17377917464204,514.23748157892 -118.5102032248276,514.356916032317 -118.84468998581717,514.4816731440351 -119.17715525235742,514.6117215071383 -119.50751532809545,514.7470283826469 -119.83568704664887,514.8875597077785 -120.1615877925425,515.0332801045233 -120.48513552200642,515.184152888551 -120.80624878362997,515.340140078445 -121.12484673886678,515.5012024052642 -121.4408491823854,515.6672993224294 -121.7541765622606,515.8383890159298 -122.06475000000005,516.0144284148502 -122.3724913104017,516.1953732022131 -122.67732302123633,516.3811778261359 -122.97916839275099,516.5717955112984 -123.27795143698754,516.7671782707176 -123.5735969369124,516.9672769178287 -123.86603046535201,517.1720410788674 -124.15517840372945,517.3814192055512 -124.44096796059755,517.5953585880562 -124.72332718996367,517.8138053682873 -125.0021850094018,518.0367045534355 -125.27747121794718,518.264000029823 -125.54911651376895,518.4956345770293 -125.81705251161661,518.7315498822954 -126.08121176003553,518.9716865552056 -126.34152775834757,519.2159841426359 -126.59793497339227,519.4643811439756 -126.85036885602446,519.7168150266078 -127.09876585736411,519.9732222416525 -127.34306344479454,520.2335382399646 -127.58320011770454,520.4976974883834 -127.81911542297087,520.7656334862311 -128.05074997017704,521.0372787820529 -128.27804544656456,521.3125649905983 -128.50094463171277,521.5914228100364 -128.71939141194377,521.8737820394025 -128.93333079444886,522.1595715962706 -129.1427089211326,522.448719534648 -129.3474730821713,522.7411530630877 -129.5475717292824,523.0367985630126 -129.74295448870163,523.3355816072491 -129.93357217386412,523.6374269787636 -130.11937679778703,523.9422586895984 -130.30032158514993,524.25 -130.4763609840702,524.5605734377394 -130.64745067757065,524.8739008176146 -130.8135475947358,525.1899032611333 -130.9746099215551,525.5085012163701 -131.13059711144902,525.8296144779937 -131.2814698954767,526.1531622074575 -131.4271902922216,526.4790629533512 -131.56772161735313,526.8072346719046 -131.70302849286168,527.1375947476427 -131.83307685596495,527.4700600141829 -131.95783396768297,527.8045467751724 -132.07726842108008,528.1409708253581 -132.1913501491713,528.4792474717841 -132.3000504324917,528.8192915551138 -132.40334190632623,529.1610174710678 -132.50119856759872,529.5043391919742 -132.59359578141806,529.8491702884257 -132.68051028727973,530.1954239510379 -132.7619202049217,530.5430130123028 -132.83780503983257,530.8918499685332 -132.90814568841094,531.2418470018907 -132.97292444277474,531.592916002494 -133.0321249952189,531.9449685905996 -133.08573244232102,532.2979161388511 -133.13373328869292,532.6516697945906 -133.17611545037826,533.0061405022273 -133.21286825789446,533.3612390256559 -133.24398245891874,533.7168759707223 -133.26945022061744,534.0729618077273 -133.28926513161773,534.4294068939658 -133.3034222036217,534.7861214962935 -133.31191787266224,535.1430158137168 -133.31475000000003,535.5 -133.31475000000006,535.5 -133.31191787266224,535.8569841862832 -133.30342220362172,536.2138785037065 -133.28926513161775,536.5705931060342 -133.26945022061744,536.9270381922727 -133.24398245891877,537.2831240292777 -133.21286825789446,537.6387609743441 -133.17611545037826,537.9938594977727 -133.13373328869295,538.3483302054094 -133.08573244232105,538.7020838611489 -133.03212499521894,539.0550314094004 -132.97292444277474,539.407083997506 -132.90814568841097,539.7581529981092 -132.83780503983257,540.1081500314668 -132.76192020492172,540.4569869876972 -132.68051028727976,540.8045760489621 -132.59359578141806,541.1508297115743 -132.50119856759875,541.4956608080258 -132.40334190632626,541.8389825289322 -132.3000504324917,542.1807084448862 -132.1913501491713,542.5207525282159 -132.0772684210801,542.8590291746419 -131.957833967683,543.1954532248276 -131.83307685596495,543.5299399858171 -131.7030284928617,543.8624052523573 -131.56772161735313,544.1927653280954 -131.42719029222164,544.5209370466488 -131.28146989547673,544.8468377925425 -131.13059711144905,545.1703855220064 -130.97460992155513,545.4914987836299 -130.81354759473584,545.8100967388667 -130.64745067757065,546.1260991823854 -130.47636098407023,546.4394265622606 -130.30032158514993,546.75 -130.11937679778706,547.0577413104016 -129.93357217386415,547.3625730212364 -129.74295448870163,547.6644183927509 -129.54757172928242,547.9632014369874 -129.3474730821713,548.2588469369123 -129.1427089211326,548.551280465352 -128.93333079444886,548.8404284037294 -128.71939141194377,549.1262179605975 -128.50094463171277,549.4085771899637 -128.2780454465646,549.6874350094017 -128.05074997017707,549.9627212179471 -127.81911542297087,550.2343665137689 -127.58320011770455,550.5023025116166 -127.34306344479455,550.7664617600354 -127.09876585736416,551.0267777583475 -126.85036885602449,551.2831849733923 -126.59793497339228,551.5356188560244 -126.34152775834758,551.7840158573641 -126.08121176003554,552.0283134447944 -125.81705251161662,552.2684501177046 -125.54911651376898,552.5043654229707 -125.27747121794721,552.735999970177 -125.00218500940181,552.9632954465645 -124.72332718996368,553.1861946317127 -124.44096796059756,553.4046414119438 -124.15517840372947,553.6185807944488 -123.86603046535203,553.8279589211326 -123.57359693691242,554.0327230821713 -123.27795143698755,554.2328217292824 -122.97916839275099,554.4282044887016 -122.67732302123638,554.6188221738641 -122.3724913104017,554.8046267977869 -122.06475000000005,554.9855715851498 -121.75417656226061,555.1616109840702 -121.44084918238542,555.3327006775706 -121.1248467388668,555.4987975947358 -120.80624878362998,555.659859921555 -120.48513552200643,555.815847111449 -120.1615877925425,555.9667198954767 -119.83568704664889,556.1124402922215 -119.50751532809545,556.2529716173531 -119.17715525235744,556.3882784928617 -118.84468998581718,556.5183268559649 -118.5102032248276,556.643083967683 -118.17377917464205,556.76251842108 -117.83550252821601,556.8766001491713 -117.49545844488625,556.9853004324916 -117.15373252893222,557.0885919063262 -116.81041080802585,557.1864485675987 -116.46557971157434,557.278845781418 -116.11932604896217,557.3657602872797 -115.77173698769722,557.4471702049217 -115.42290003146685,557.5230550398325 -115.0729029981093,557.5933956884109 -114.72183399750598,557.6581744427747 -114.36978140940045,557.7173749952188 -114.01683386114898,557.7709824423209 -113.66308020540941,557.8189832886928 -113.3086094977728,557.8613654503782 -112.95351097434416,557.8981182578945 -112.59787402927782,557.9292324589187 -112.24178819227276,557.9547002206174 -111.88534310603427,557.9745151316176 -111.52862850370659,557.9886722036216 -111.17173418628323,557.9971678726622 -110.81475000000006,558.0 110.81474999999993,558.0 " style="stroke:black;fill:none;stroke-width:2.0;stroke-dasharray:-;stroke-linecap:round;stroke-linejoin:round;" /><path d="M 0.0,45.0 L -9.919639073093561e-15,99.0 L -1.839196776147815e-14,144.0" style="stroke:black;fill:none;stroke-width:2.0;stroke-dasharray:-;stroke-linecap:round;stroke-linejoin:round;" /><path d="M -1.9517653616251795e-14 151.0 L -2.700000000000018 144.0 L 2.6999999999999815 144.0 Z" style="stroke:black;fill:black;stroke-linecap:butt;stroke-linejoin:miter;" /><path d="M -54.000000000000014,189.0 L -54.000000000000014,153.0 L 53.999999999999986,153.0 L 53.999999999999986,225.0 L -54.000000000000014,225.0 L -54.000000000000014,189.0" style="stroke:black;fill:none;stroke-width:2.0;stroke-dasharray:-;stroke-linecap:round;stroke-linejoin:round;" /><path d="M -1.9839278146187122e-14,225.0 L -2.9758917219280685e-14,279.0 L -3.823124590766527e-14,324.0" style="stroke:black;fill:none;stroke-width:2.0;stroke-dasharray:-;stroke-linecap:round;stroke-linejoin:round;" /><path d="M -3.935693176243892e-14 331.0 L -2.700000000000038 324.0 L 2.6999999999999615 324.0 Z" style="stroke:black;fill:black;stroke-linecap:butt;stroke-linejoin:miter;" /><path d="M -54.00000000000004,369.0 L -54.00000000000004,333.0 L 53.99999999999996,333.0 L 53.99999999999996,405.0 L -54.00000000000004,405.0 L -54.00000000000004,369.0" style="stroke:black;fill:none;stroke-width:2.0;stroke-dasharray:-;stroke-linecap:round;stroke-linejoin:round;" /><path d="M -3.9678556292374245e-14,405.0 L -4.9598195365467804e-14,459.0 L -5.80705240538524e-14,504.0" style="stroke:black;fill:none;stroke-width:2.0;stroke-dasharray:-;stroke-linecap:round;stroke-linejoin:round;" /><path d="M -5.919620990862604e-14 511.0 L -2.7000000000000575 504.0 L 2.699999999999942 504.0 Z" style="stroke:black;fill:black;stroke-linecap:butt;stroke-linejoin:miter;" /><text x="0.0" y="8.5" dominant-baseline="central" fill="black" font-size="14.0" font-family="sans" text-anchor="middle"><tspan x="0.0" dy="14.0">WP2: Design and Synthesis</tspan></text><text x="-1.9839278146187122e-14" y="175.0" dominant-baseline="central" fill="black" font-size="14.0" font-family="sans" text-anchor="middle"><tspan x="-1.9839278146187122e-14" dy="14.0">WP3: Screening and Selection</tspan></text><text x="-3.9678556292374245e-14" y="355.0" dominant-baseline="central" fill="black" font-size="14.0" font-family="sans" text-anchor="middle"><tspan x="-3.9678556292374245e-14" dy="14.0">WP4: Environment Validation</tspan></text><text x="-5.951783443856137e-14" y="521.5" dominant-baseline="central" fill="black" font-size="14.0" font-family="sans" text-anchor="middle"><tspan x="-5.951783443856137e-14" dy="14.0">WP5: Real-World Proof-of-Concept</tspan></text></svg>